<?xml version="1.0" encoding="UTF-8"?> <svg xmlns="http://www.w3.org/2000/svg" id="a3ab8e5c-8254-49e8-a9e7-748c9b687984" data-name="Layer 1" viewBox="0 0 465.99 487.56"><title>logo-alsike-light</title><path d="M306.44,14.28a7.66,7.66,0,0,1,.45.66c3.18,5,3.36,10.55,2.76,16.2-.37,3.45.77,6.7,1.33,10,1.22,7.28,3.14,14.51,3.54,21.83.29,5.35,2.23,8.79,6.5,11.4.09.58.19,1.16.28,1.74-1.31,1.61-.54,3.35-.33,5.06,1.1,8.92,2,17.87,3.36,26.75,2.25,14.81,1.62,30.22,9.12,44,1.61,3,0,4.05-3,3.81-2.35-.19-3.27.21-1.89,2.91A82.22,82.22,0,0,1,334,173.51c1,3.42,2.8,4.73,5.56,1.3,3.77-4.28,7.8-3.82,12.87-1.92s10.65,2.15,16,2.94c1.9.28,3.44-1.19,4.57-2.41,6.2-6.65,13.84-7.27,22.14-5.88,2.35.39,5.13,1.66,6.06-2.43.31-1.35,2.33-.8,3.48-.35,9,3.49,17.8,3,26.78-.26,3.65-1.32,7.3-2.12,10-5.28a12.83,12.83,0,0,1,7.11-3.89c2.83-.63,5.79-1,8.39-2.22,4.74-2.14,8.92-3.5,11.6,2.72a2.75,2.75,0,0,0,3.25,1.56c5.77-1.21,8.39,1.73,9.35,6.94,3.66,7.78,1.47,14.46-3.83,20.57-1.48,1.71-2.81,3.54-4.33,5.2-.74.81-2,2.13-2.62,1.93-4.13-1.34-5.21,2.15-7.11,4.22-3.93,4.28-7.49,8.92-11.67,12.93-6.41,6.15-13.09,11.53-23.17,10.61-7.79-.71-15.83-1.1-23.47,1.73-5.53,2-11,1.64-16.5-.08-2.13-.67-4-.24-6.05.42-8.55,2.7-16.22,7.56-25.32,9.14-7.58,1.31-8,3.33-7.07,11.33.58,4.79.54,9.66,1,14.47.94,9.06.6,18.19,2.81,27.21,1.23,5-.84,10.44.11,16,.81,4.69,5,9.31,1.58,14.54-.16.24.47,1.18.92,1.59,2.72,2.46,3.44,5.65,3.76,9.14.37,4.16,1.14,8.29,1.59,12.45.35,3.15,1.66,4,4.42,2.23,3.21,1.79,2.58,5.87,4.9,8.19-1.88,3.34-1.13,7.35-3.77,10.87-1.72,2.3,0,7.12,0,10.81.12,5.08,1.79,10.41-.88,15.14-2.35,4.18-5.49,7.91-8.29,11.83-1.48,2.07-3.32,3.38-6.06,3.23-3.15-.17-5.09,1.41-6,4.47-.53,1.85-1.12,3.82-3.85,3.28-.88-.17-1.28.44-1.64,1.32-4.57,11-14.57,15.07-24.53,19.2l-.68-.5a.85.85,0,0,0-1.06-.83c-8.33-4.5-13.38-11.63-16.3-20.44-.45-1.36-1.13-2.81-1-4.16.92-10.48-.88-20.73-4.12-30.45-2.42-7.25-2.11-14-1-21.15a18.46,18.46,0,0,0-.43-6.22c-1.09-5.46-1.8-10.73,2-15.62,1.4-1.8,1.38-4.11.59-6.42-1.09-3.19-1.81-6.51-2.83-9.73-1.44-4.52-2.23-8.92-.21-13.58,1.14-2.62,1.74-5.58-.26-8.31a3.56,3.56,0,0,1-.34-3.26c2.8-8.66,1.09-17.23-.59-25.76-.46-2.34-.53-4.54.67-6.52,3-4.93,4.16-9.95,1.48-15.39.68-6.19-.83-7.56-6.86-6.25a10.29,10.29,0,0,1-3.32.54c-2.76-.38-3.84.35-2.84,3.23,1.15,3.31-.45,3.44-3.18,2.89a23.3,23.3,0,0,0-15.41,2.23c-7.26,3.57-15.24,6-23.37,4.93-5.45-.72-10.18.46-15,2.11a69.51,69.51,0,0,1-13.61,3.25c-2.66.34-4.59,1.35-4.59,4.47,0,1.91-1.06,3.57-2.94,2.61-3.27-1.68-6.26-5.22-9,.51-4.45-.39-6.45,3.18-9,5.74a6,6,0,0,1-5.21,1.89c-2.85-.27-4.18.21-3,3.69,2.18,6.31,1.51,6.92-5.1,5.69-3.18-.59-6.33-1.49-9.34.52-3.49,2.32-7.42,4.19-10.35,7.08-3.43,3.38-6.7,4.63-11.13,2.63-1-.46-2.7-.9-3.22,0-3.38,5.62-13,3.51-14.31,11.58-.07.42-1,1-1.51,1-6.81-.14-10.73,3.65-13.28,9.48-.36.83-1.43,1.31-2,2.09-2.87,3.92-6,8.28-5.81,12.93.2,4.26-.91,7.5-3.53,9.9-3.86,3.52-5.06,7.5-4.72,12.43.17,2.38.27,5.33-1.43,6.9-3,2.75-7.37,4.27-6.13,9.67.06.27-1.08.67-1.3,1.17-2,4.65-7.5,6-9.84,10.17-4.67,8.38-11.57,15.41-14.87,24.61a6.61,6.61,0,0,1-2.76,3.29A16.72,16.72,0,0,0,47,412.09c-1.38,4.33-7.94,9.29-10.55,8.62-3.06-.79-6-1.9-9.06-2.88a1.07,1.07,0,0,0-.58-.27l-1.13-.3c-4.94-3.79-6.56-9.61-4.15-16.63a9.43,9.43,0,0,0,.07-5.49,82.62,82.62,0,0,1-1.48-24.26,54.52,54.52,0,0,0-.2-13.82c-1.13-6.55-.71-13.6-.46-20.39.14-3.84,10-7.27,13.2-5.09s6.67,4.53,10,6.82,6,2.58,8.77-.93c3.61-4.53,7.61-8.76,11.44-13.12l.82-.8.06-1.14-.15-.05,1,0c3.79-2.81,5.92-7.09,9.24-10.32.67-.65,1.58-1.56.74-2.44-.56-.58-2.1-1.12-2.53-.79-2.53,1.92-6.06,1.23-8.29,2.69-5.91,3.87-12.32,4.09-18.89,4.2-.88-1.15-1.84-2.25-2.63-3.46-2.62-4-8-7.66-7.42-12,1-6.83,4.19-13.54,8.44-19.31,2.86-3.88,6.24-7.38,9.47-11,1.46-1.62,2.67-3.74,5.54-3.06,1.34.32,1.87-1,2.5-1.9.81-1.21,1.93-2.29,2.4-3.62,3.28-9.3,10.38-12.47,19.59-12.83,3.67-.15,7.3-1.27,11-1.83,2.67-.41,5.64-2.11,7.16,2.21.54,1.53,2.7,1.35,3.39-.37,1.14-2.86,3-2.92,5.4-2s4.15-.25,5.68-1.67c2.05-1.91-.46-3-1.1-4.47-.33-.73-1-1.45-.5-2.21,3.16-4.55,4-11.25,11.3-12,2.66-.27,4.27-1.81,4.83-4.57.31-1.54.78-3.44,1.86-4.36,5.64-4.79,7.55-11.55,10.66-17.84,2.93-5.93,8.86-10.09,12.39-16a86.43,86.43,0,0,1,11.08-15c6.48-6.91,11.08-15.16,14.63-24.13,4.92-12.4,12.13-23.83,19.58-34.71,4.43-6.47,7.79-14.2,13.57-19.28C220.77,84.05,223.29,76,226.74,68a5.28,5.28,0,0,1,2-2.63c5.89-2.93,8-8.4,10-14.07,1.71-4.71,5.18-8.81,4.75-14.25-.06-.78.17-2.12.94-2,3.4.68,4.59-2.29,5.61-4,3.63-6.14,10.14-8.14,15.51-11.75,3.88-2.6,8.35-4.44,11.87-7.42,5.81-4.93,12-5.81,19.23-4.44,4.07.77,7.34,1.8,9,5.81ZM167.32,232.77c3.56,2.81,6.87,3.8,10.91.31,7.52-6.52,16.23-10.17,26.47-9.22,1.06.1,3.11-.27,3.13-.55.37-4.82,4-2.45,6.06-2.55a60.15,60.15,0,0,0,12.87-1.56c5-1.35,9.9-4,15.45-1.86.94.37,2.49-.47,3.62-1,10-4.87,20.19-9.34,31.12-11.85,1.43-.33,3.24.09,4.32-1.41-1-2.91-5-3.53-4.84-7.39.53-9.86-1.53-20,3.18-29.4l.14-.27c0,.12,0,.24-.05.36-2.69-.62-5.82,2.95-8-.12a73.36,73.36,0,0,1-7.95-13.78c-1.9-4.54-8.15-7.43-5.53-13.8.15-.38-.45-1.18-.86-1.65-2.35-2.7-4.13-5.35-1-8.75.91-1,.09-2.23-.69-3-5.4-5.56-6-12.84-7.33-19.9-.72-3.85-1.44-7.7-2-10.84-1.87,1.42-4,2.5-5.39,4.18-4.91,5.87-12,9.43-16,16.34s-9.74,12.59-11.92,20.33c-1.76,6.22-4.82,11.4-10.47,14.36-5,2.61-7.14,6.67-8.31,11.69a94.3,94.3,0,0,0-1.79,12.42c-.27,2.75,1.75,7.58-4.48,6.35-.72-.14-1.22.61-1.19,1.25.13,2.7-2,3.74-3.78,4.46-3.63,1.43-4.81,3.88-4.27,7.54.59,4-1.12,6.25-5.11,7.35-2,.55-4.32,1.18-5.3,3.74-3.62,9.48-5.32,19.79-12.84,28.26Z" transform="translate(-17 -6.88)" style="fill: #fff"></path><path d="M63.65,323.55l-.82.8Z" transform="translate(-17 -6.88)" style="fill: #fff"></path><path d="M25.66,417.25l1.13.3C26.27,418,25.93,417.74,25.66,417.25Z" transform="translate(-17 -6.88)" style="fill: #fff"></path><path d="M314.48,426.92c.61-.05,1,.18,1.06.83A.85.85,0,0,1,314.48,426.92Z" transform="translate(-17 -6.88)" style="fill: #fff"></path><path d="M306.44,14.28l-.77-1C306.27,13.34,306.57,13.64,306.44,14.28Z" transform="translate(-17 -6.88)" style="fill: #fff"></path><path d="M63.56,322.35c-.32-.54-.55-1.3.14-1.46,1.22-.28.61.93.89,1.44Z" transform="translate(-17 -6.88)" style="fill: #fff"></path><path d="M279.7,166.37c0-.12,0-.24.05-.36l-.14.27Z" transform="translate(-17 -6.88)" style="fill: #fff"></path><g><path d="M37.5,457.51a1.67,1.67,0,0,1,1.25.44,3.72,3.72,0,0,1,.73,1.33l12.74,32.86a1.3,1.3,0,0,1,.05.36,1.43,1.43,0,0,1-1.41,1.41H47.12a2,2,0,0,1-1.46-.44,2.47,2.47,0,0,1-.57-.86l-2.24-5.77H26.42l-2.24,5.77a2.56,2.56,0,0,1-.57.86,2,2,0,0,1-1.46.44H18.41A1.43,1.43,0,0,1,17,492.5a1.25,1.25,0,0,1,.05-.36l12.74-32.86a3.81,3.81,0,0,1,.73-1.33,1.65,1.65,0,0,1,1.25-.44Zm2.86,22.83-5.72-14.82-5.72,14.82Z" transform="translate(-17 -6.88)" style="fill: #fff"></path><path d="M81.18,487.42a1.43,1.43,0,0,1,1.41,1.41v3.69a1.43,1.43,0,0,1-1.41,1.41H58.4A1.43,1.43,0,0,1,57,492.52V458.93a1.43,1.43,0,0,1,1.41-1.41h4.21A1.43,1.43,0,0,1,64,458.93v28.5H81.18Z" transform="translate(-17 -6.88)" style="fill: #fff"></path><path d="M100.05,457a18.3,18.3,0,0,1,6.14.94,15.21,15.21,0,0,1,4.42,2.34,10.25,10.25,0,0,1,2.68,3.09,7.9,7.9,0,0,1,1,3.2,1.16,1.16,0,0,1-.39,1,1.47,1.47,0,0,1-1,.39h-3.64a2.16,2.16,0,0,1-1.33-.34,3.64,3.64,0,0,1-.81-.91,6.71,6.71,0,0,0-2.37-2.26,9.26,9.26,0,0,0-4.71-1,11.24,11.24,0,0,0-2.57.29,7.45,7.45,0,0,0-2.13.83A4.37,4.37,0,0,0,93.91,466a3.09,3.09,0,0,0-.52,1.77,3.48,3.48,0,0,0,.49,1.95,3.86,3.86,0,0,0,1.66,1.3,17.21,17.21,0,0,0,3.09,1c1.28.31,2.88.68,4.78,1.09a33.22,33.22,0,0,1,5.38,1.59,12.5,12.5,0,0,1,3.69,2.18,8.22,8.22,0,0,1,2.13,2.94,9.65,9.65,0,0,1,.7,3.8,9.3,9.3,0,0,1-1,4.34,10,10,0,0,1-3,3.43,15,15,0,0,1-4.73,2.26,22.28,22.28,0,0,1-6.29.83,21.5,21.5,0,0,1-5.56-.7,16.21,16.21,0,0,1-4.71-2,11.09,11.09,0,0,1-3.3-3.2,8.37,8.37,0,0,1-1.4-4.16,1.16,1.16,0,0,1,.39-1,1.47,1.47,0,0,1,1-.39h3.64a2,2,0,0,1,2.13,1.25,10.34,10.34,0,0,0,.88,1.35,4.92,4.92,0,0,0,1.4,1.2,8.64,8.64,0,0,0,2.21.86,13.33,13.33,0,0,0,3.3.34,19.87,19.87,0,0,0,3-.23,9.09,9.09,0,0,0,2.55-.78,5.33,5.33,0,0,0,1.77-1.35,3,3,0,0,0,.68-2,2.51,2.51,0,0,0-.73-1.87,5.84,5.84,0,0,0-2.21-1.25,29.71,29.71,0,0,0-3.67-1q-2.19-.47-5-1.2a27.65,27.65,0,0,1-4.55-1.48,10.4,10.4,0,0,1-3.22-2.11,7.89,7.89,0,0,1-1.9-2.94,11.57,11.57,0,0,1-.62-4,9.19,9.19,0,0,1,1-4.32A10.29,10.29,0,0,1,90.26,460a14,14,0,0,1,4.34-2.21A17.57,17.57,0,0,1,100.05,457Z" transform="translate(-17 -6.88)" style="fill: #fff"></path><path d="M122.67,493.92a1.43,1.43,0,0,1-1.41-1.41V458.92a1.43,1.43,0,0,1,1.41-1.41h4.21a1.43,1.43,0,0,1,1.41,1.41v33.59a1.43,1.43,0,0,1-1.41,1.41Z" transform="translate(-17 -6.88)" style="fill: #fff"></path><path d="M164,491.73a1.05,1.05,0,0,1,.31.47,1.73,1.73,0,0,1,.05.31,1.43,1.43,0,0,1-1.41,1.41H158a2.39,2.39,0,0,1-1.66-.55l-.73-.65-12.22-13.78v13.57a1.43,1.43,0,0,1-1.41,1.41h-4.21a1.43,1.43,0,0,1-1.41-1.41V458.92a1.43,1.43,0,0,1,1.41-1.41H142a1.43,1.43,0,0,1,1.41,1.41v12.22l11.34-12.48a4.2,4.2,0,0,1,1-.83,2.59,2.59,0,0,1,1.35-.31h4.78a1.43,1.43,0,0,1,1.41,1.41,1.16,1.16,0,0,1-.31.78L149,475Z" transform="translate(-17 -6.88)" style="fill: #fff"></path><path d="M193.29,487.42a1.43,1.43,0,0,1,1.41,1.41v3.69a1.43,1.43,0,0,1-1.41,1.41H170.46a1.43,1.43,0,0,1-1.41-1.41V458.93a1.43,1.43,0,0,1,1.41-1.41h22.41a1.43,1.43,0,0,1,1.41,1.41v3.69a1.43,1.43,0,0,1-1.41,1.41h-16.8v8.27h15.65a1.43,1.43,0,0,1,1.41,1.41v3.69a1.43,1.43,0,0,1-1.41,1.41H176.07v8.63h17.22Z" transform="translate(-17 -6.88)" style="fill: #fff"></path><path d="M211.7,471a16.6,16.6,0,0,1,1.14-5.69,12.14,12.14,0,0,1,3-4.42,13.75,13.75,0,0,1,4.86-2.86,23.66,23.66,0,0,1,14.19.16,14.71,14.71,0,0,1,4.68,2.81,9.6,9.6,0,0,1,2.44,3.38,10.61,10.61,0,0,1,.81,2.94,1.16,1.16,0,0,1-.39,1,1.47,1.47,0,0,1-1,.39h-4.21a1.36,1.36,0,0,1-.91-.29,1.78,1.78,0,0,1-.49-.6c-.07-.14-.25-.44-.55-.91a6,6,0,0,0-1.4-1.46,9.82,9.82,0,0,0-2.52-1.35,11,11,0,0,0-3.9-.6,9,9,0,0,0-6.24,2.11,7.73,7.73,0,0,0-2.5,5.64c-.07,1.32-.1,2.73-.1,4.24s0,2.92.1,4.24c.1,2.88.94,5,2.5,6.27a9.43,9.43,0,0,0,6.24,1.95,14.08,14.08,0,0,0,3.54-.42,7.44,7.44,0,0,0,2.78-1.35,6.14,6.14,0,0,0,1.82-2.47,9.73,9.73,0,0,0,.65-3.77v-.42h-6.34a1.43,1.43,0,0,1-1.41-1.41v-3.69a1.43,1.43,0,0,1,1.41-1.41h12a1.43,1.43,0,0,1,1.41,1.41v5.72a16.18,16.18,0,0,1-1,5.75,12.13,12.13,0,0,1-3,4.52,13.62,13.62,0,0,1-4.94,3,23,23,0,0,1-13.78,0,13.18,13.18,0,0,1-4.84-2.91,12.56,12.56,0,0,1-2.94-4.5,17.4,17.4,0,0,1-1.12-5.75c0-.66-.06-1.39-.08-2.18s0-1.61,0-2.44,0-1.65,0-2.44S211.66,471.64,211.7,471Z" transform="translate(-17 -6.88)" style="fill: #fff"></path><path d="M264.63,457.51q6.5,0,9.88,3a10.65,10.65,0,0,1,3.38,8.37,11.6,11.6,0,0,1-1.74,6.47,10.3,10.3,0,0,1-5.12,4l7.18,12.84a1.37,1.37,0,0,1,.16.57,1.1,1.1,0,0,1-.34.81,1.09,1.09,0,0,1-.81.34H272.8a2.07,2.07,0,0,1-1.53-.49,3.64,3.64,0,0,1-.7-.91l-6.81-12.12h-6.92v12.12a1.43,1.43,0,0,1-1.41,1.41h-4.21a1.43,1.43,0,0,1-1.41-1.41V458.92a1.43,1.43,0,0,1,1.41-1.41Zm-7.8,16.39h7.54a9.32,9.32,0,0,0,4.73-1c1.18-.69,1.77-2,1.77-3.95s-.59-3.24-1.77-3.9a9.7,9.7,0,0,0-4.73-1h-7.54Z" transform="translate(-17 -6.88)" style="fill: #fff"></path><path d="M283.4,471.09a18.36,18.36,0,0,1,1.12-5.49,12.53,12.53,0,0,1,2.83-4.47,13.65,13.65,0,0,1,4.68-3,17.86,17.86,0,0,1,6.66-1.12,18.11,18.11,0,0,1,6.6,1.09,13,13,0,0,1,4.68,3,13.21,13.21,0,0,1,2.86,4.47,17.6,17.6,0,0,1,1.14,5.51c0,.66.06,1.39.08,2.18s0,1.62,0,2.47,0,1.67,0,2.47,0,1.53-.08,2.18a18.36,18.36,0,0,1-1.12,5.49,12.53,12.53,0,0,1-2.83,4.47,13.17,13.17,0,0,1-4.71,3,20.8,20.8,0,0,1-13.29,0,13.17,13.17,0,0,1-4.68-3,12.57,12.57,0,0,1-2.83-4.47,18.55,18.55,0,0,1-1.12-5.49c0-.66-.06-1.39-.08-2.18s0-1.62,0-2.47,0-1.67,0-2.47S283.37,471.75,283.4,471.09Zm23.56.26a8.27,8.27,0,0,0-16.54,0c-.07,1.32-.1,2.78-.1,4.39s0,3.08.1,4.39a8.05,8.05,0,0,0,2.42,5.77,9.44,9.44,0,0,0,11.7,0,8.11,8.11,0,0,0,2.42-5.77c.07-1.32.1-2.78.1-4.39S307,472.67,307,471.35Z" transform="translate(-17 -6.88)" style="fill: #fff"></path><path d="M349,457.51a1.43,1.43,0,0,1,1.41,1.41v21.32a16.92,16.92,0,0,1-.94,5.82,12.05,12.05,0,0,1-2.81,4.47,12.58,12.58,0,0,1-4.68,2.89,19,19,0,0,1-6.5,1,19.22,19.22,0,0,1-6.53-1,12.33,12.33,0,0,1-4.65-2.89,11.74,11.74,0,0,1-2.78-4.47,17.42,17.42,0,0,1-.91-5.82V458.92a1.43,1.43,0,0,1,1.41-1.41h4.21a1.43,1.43,0,0,1,1.41,1.41V480a10.34,10.34,0,0,0,.57,3.64,6.35,6.35,0,0,0,1.61,2.47,6.27,6.27,0,0,0,2.5,1.4,11,11,0,0,0,3.17.44,11.35,11.35,0,0,0,3.2-.44,6.21,6.21,0,0,0,2.52-1.4,6.64,6.64,0,0,0,1.64-2.47,9.84,9.84,0,0,0,.6-3.64V458.92a1.43,1.43,0,0,1,1.41-1.41Z" transform="translate(-17 -6.88)" style="fill: #fff"></path><path d="M373.57,457.51q6.29,0,9.78,3t3.48,8.68q0,5.72-3.48,8.74t-9.78,3h-8.32v11.6a1.43,1.43,0,0,1-1.41,1.41h-4.21a1.43,1.43,0,0,1-1.41-1.41V458.92a1.43,1.43,0,0,1,1.41-1.41Zm-8.32,16.91h8.06a8.45,8.45,0,0,0,4.73-1.17q1.77-1.17,1.77-4.08c0-1.94-.59-3.28-1.77-4a8.74,8.74,0,0,0-4.73-1.12h-8.06Z" transform="translate(-17 -6.88)" style="fill: #fff"></path></g></svg> 