<?xml version="1.0" encoding="utf-8"?>
<!-- Generator: Adobe Illustrator 25.4.1, SVG Export Plug-In . SVG Version: 6.00 Build 0)  -->
<svg version="1.1" id="Layer_1" xmlns="http://www.w3.org/2000/svg" xmlns:xlink="http://www.w3.org/1999/xlink" x="0px" y="0px"
	 viewBox="0 0 261.8 30.25" style="enable-background:new 0 0 261.8 30.25;" xml:space="preserve">
<style type="text/css">
	.st0{fill:#002D74;}
</style>
<g>
	<path class="st0" d="M257.33,4.04C254.36,1.35,250.39,0,245.42,0c-5,0-9.16,1.39-12.49,4.22c-3.4,2.91-5.12,6.69-5.12,11.34
		c0,4.3,1.49,7.82,4.47,10.56c3.02,2.74,6.99,4.13,11.91,4.13c5.12,0,9.32-1.48,12.64-4.43c3.32-3,4.97-6.74,4.97-11.26
		C261.8,10.25,260.31,6.74,257.33,4.04 M251.19,22.38c-1.41,1.61-3.36,2.39-5.77,2.39c-3.09,0-5.46-1.09-7.06-3.21
		c-1.41-1.87-2.1-4.39-2.1-7.52c0-2.74,0.73-4.91,2.18-6.43c1.38-1.44,3.25-2.17,5.65-2.17c3.17,0,5.54,1.04,7.18,3.13
		c1.41,1.87,2.1,4.34,2.1,7.43C253.36,18.64,252.64,20.77,251.19,22.38"/>
	<path class="st0" d="M11.53,22.51c-1.8-1.78-2.71-4.3-2.71-7.56c0-3.08,0.96-5.47,2.83-7.26c1.68-1.56,3.78-2.35,6.34-2.35
		c4.26,0,7.62,1.59,10,3.28V1.65C25.16,0.57,21.92,0,18.29,0C12.6,0,8.09,1.56,4.73,4.65C1.56,7.56,0,11.26,0,15.73
		c0,4.17,1.41,7.56,4.28,10.21c3.09,2.87,7.45,4.3,13.06,4.3c4.43,0,8.78-1.83,11.34-4.65v-4.99c-2.93,2.22-6.84,4.25-10.81,4.25
		C15.27,24.86,13.17,24.07,11.53,22.51"/>
	<path class="st0" d="M91.56,17.47c0,0,6.37-0.25,6.37-8c0-2.39-0.92-4.39-2.79-6.04c-2.1-1.87-4.97-2.78-8.63-2.78h-6.15h-7.91
		v2.29v26.65h7.79V18.9h3.22c0.76,0,1.68,0.91,2.79,2.69l4.85,8h9.35l-6.49-9.91C93.16,18.43,92.36,17.69,91.56,17.47 M88.95,12.6
		c-0.8,0.91-2.02,1.39-3.59,1.39h-5.19V5.61h5.04c3.05,0,4.81,1.61,4.81,3.87C90.02,10.78,89.68,11.82,88.95,12.6"/>
	<path class="st0" d="M126.66,13.99c1.68-0.3,3.05-1.09,4.09-2.35c0.95-1.22,1.45-2.61,1.45-4.13c0-1.87-0.73-3.43-2.14-4.69
		c-1.64-1.43-3.89-2.17-6.84-2.17h-8.9h-7.9v2.3v0v26.65h17.45c3.17,0,5.65-0.83,7.45-2.48c1.57-1.43,2.33-3.26,2.33-5.48
		c0-1.96-0.61-3.65-1.83-5.08C130.52,15.04,128.8,14.17,126.66,13.99 M114.6,5.61h5.27c2.44,0,3.67,1.04,3.67,3.13
		c0,2.43-1.22,3.65-3.71,3.65h-5.23V5.61z M120.36,24.55h-5.77v-7.39h5.23c3.86,0,5.19,1.26,5.19,3.91
		C125.02,23.38,123.46,24.55,120.36,24.55"/>
	<polygon class="st0" points="184.35,0.68 184.43,0.65 184.35,0.65 176.53,0.65 176.53,2.95 176.53,29.59 196.53,29.59 
		197.45,24.55 184.35,24.55 	"/>
	<polygon class="st0" points="211.21,0.67 211.29,0.65 211.21,0.65 203.39,0.65 203.39,2.95 203.39,29.59 223.39,29.59 
		224.31,24.55 211.21,24.55 	"/>
	<path class="st0" d="M46.39,0.65l-1.07,2.3L32.91,29.59h1.47h5.55l1.94-4.69h13.75l2.12,4.53c0.05,0.1,0.08,0.16,0.08,0.16h9.58
		L53.22,0.65H46.39z M48.3,9.3l4.77,10.17H44.1L48.3,9.3z"/>
	<path class="st0" d="M156.84,0.65L156.84,0.65h-6.84l-1.07,2.29l-12.42,26.65h1.47h5.55l1.94-4.69h13.75l2.12,4.53
		c0.05,0.1,0.08,0.16,0.08,0.16h9.58L156.84,0.65L156.84,0.65z M151.9,9.3l4.77,10.17h-8.96L151.9,9.3z"/>
	<path class="st0" d="M257.33,4.04C254.36,1.35,250.39,0,245.42,0c-5,0-9.16,1.39-12.49,4.22c-3.4,2.91-5.12,6.69-5.12,11.34
		c0,4.3,1.49,7.82,4.47,10.56c3.02,2.74,6.99,4.13,11.91,4.13c5.12,0,9.32-1.48,12.64-4.43c3.32-3,4.97-6.74,4.97-11.26
		C261.8,10.25,260.31,6.74,257.33,4.04 M251.19,22.38c-1.41,1.61-3.36,2.39-5.77,2.39c-3.09,0-5.46-1.09-7.06-3.21
		c-1.41-1.87-2.1-4.39-2.1-7.52c0-2.74,0.73-4.91,2.18-6.43c1.38-1.44,3.25-2.17,5.65-2.17c3.17,0,5.54,1.04,7.18,3.13
		c1.41,1.87,2.1,4.34,2.1,7.43C253.36,18.64,252.64,20.77,251.19,22.38"/>
	<path class="st0" d="M11.53,22.51c-1.8-1.78-2.71-4.3-2.71-7.56c0-3.08,0.96-5.47,2.83-7.26c1.68-1.56,3.78-2.35,6.34-2.35
		c4.26,0,7.62,1.59,10,3.28V1.65C25.16,0.57,21.92,0,18.29,0C12.6,0,8.09,1.56,4.73,4.65C1.56,7.56,0,11.26,0,15.73
		c0,4.17,1.41,7.56,4.28,10.21c3.09,2.87,7.45,4.3,13.06,4.3c4.43,0,8.78-1.83,11.34-4.65v-4.99c-2.93,2.22-6.84,4.25-10.81,4.25
		C15.27,24.86,13.17,24.07,11.53,22.51"/>
	<path class="st0" d="M91.56,17.47c0,0,6.37-0.25,6.37-8c0-2.39-0.92-4.39-2.79-6.04c-2.1-1.87-4.97-2.78-8.63-2.78h-6.15h-7.91
		v2.29v26.65h7.79V18.9h3.22c0.76,0,1.68,0.91,2.79,2.69l4.85,8h9.35l-6.49-9.91C93.16,18.43,92.36,17.69,91.56,17.47 M88.95,12.6
		c-0.8,0.91-2.02,1.39-3.59,1.39h-5.19V5.61h5.04c3.05,0,4.81,1.61,4.81,3.87C90.02,10.78,89.68,11.82,88.95,12.6"/>
	<path class="st0" d="M126.66,13.99c1.68-0.3,3.05-1.09,4.09-2.35c0.95-1.22,1.45-2.61,1.45-4.13c0-1.87-0.73-3.43-2.14-4.69
		c-1.64-1.43-3.89-2.17-6.84-2.17h-8.9h-7.9v2.3v0v26.65h17.45c3.17,0,5.65-0.83,7.45-2.48c1.57-1.43,2.33-3.26,2.33-5.48
		c0-1.96-0.61-3.65-1.83-5.08C130.52,15.04,128.8,14.17,126.66,13.99 M114.6,5.61h5.27c2.44,0,3.67,1.04,3.67,3.13
		c0,2.43-1.22,3.65-3.71,3.65h-5.23V5.61z M120.36,24.55h-5.77v-7.39h5.23c3.86,0,5.19,1.26,5.19,3.91
		C125.02,23.38,123.46,24.55,120.36,24.55"/>
	<polygon class="st0" points="211.21,0.67 211.29,0.65 211.21,0.65 203.39,0.65 203.39,2.95 203.39,29.59 223.39,29.59 
		224.31,24.55 211.21,24.55 	"/>
	<path class="st0" d="M46.39,0.65l-1.07,2.3L32.91,29.59h1.47h5.55l1.94-4.69h13.75l2.12,4.53c0.05,0.1,0.08,0.16,0.08,0.16h9.58
		L53.22,0.65H46.39z M48.3,9.3l4.77,10.17H44.1L48.3,9.3z"/>
	<path class="st0" d="M156.84,0.65L156.84,0.65h-6.84l-1.07,2.29l-12.42,26.65h1.47h5.55l1.94-4.69h13.75l2.12,4.53
		c0.05,0.1,0.08,0.16,0.08,0.16h9.58L156.84,0.65L156.84,0.65z M151.9,9.3l4.77,10.17h-8.96L151.9,9.3z"/>
</g>
</svg>
