<?xml version="1.0" encoding="utf-8"?>
<!-- Generator: Adobe Illustrator 24.0.2, SVG Export Plug-In . SVG Version: 6.00 Build 0)  -->
<svg version="1.1" id="Layer_1" xmlns="http://www.w3.org/2000/svg" xmlns:xlink="http://www.w3.org/1999/xlink" x="0px" y="0px"
	 viewBox="0 0 800 201" style="enable-background:new 0 0 800 201;" xml:space="preserve">
<style type="text/css">
	.st0{fill:url(#SVGID_1_);}
	.st1{fill:url(#SVGID_2_);}
	.st2{fill:url(#SVGID_3_);}
	.st3{fill:url(#SVGID_4_);}
	.st4{fill:url(#SVGID_5_);}
	.st5{fill:url(#SVGID_6_);}
	.st6{fill:url(#SVGID_7_);}
	.st7{fill:url(#SVGID_8_);}
	.st8{fill:url(#SVGID_9_);}
	.st9{fill:url(#SVGID_10_);}
	.st10{fill:#835B14;}
	.st11{fill:url(#SVGID_11_);}
	.st12{fill:url(#SVGID_12_);}
	.st13{fill:url(#SVGID_13_);}
	.st14{fill:url(#SVGID_14_);}
</style>
<g>
	<g>
		<linearGradient id="SVGID_1_" gradientUnits="userSpaceOnUse" x1="213.9271" y1="67.764" x2="794.5834" y2="104.1334">
			<stop  offset="0" style="stop-color:#710000"/>
			<stop  offset="7.367647e-02" style="stop-color:#7D0304"/>
			<stop  offset="0.2068" style="stop-color:#9D0B0F"/>
			<stop  offset="0.3354" style="stop-color:#C2151C"/>
			<stop  offset="0.6661" style="stop-color:#BA1319"/>
			<stop  offset="0.845" style="stop-color:#A60D11"/>
			<stop  offset="1" style="stop-color:#99090C"/>
		</linearGradient>
		<path class="st0" d="M643.8,81l1.7,26.4h0L643.8,81z M635.2,101.2L635.2,101.2l-7.2,6.2L635.2,101.2z M632.8,107.1L632.8,107.1
			l0,0.5L632.8,107.1L632.8,107.1z"/>
		<linearGradient id="SVGID_2_" gradientUnits="userSpaceOnUse" x1="213.1049" y1="80.8903" x2="793.7612" y2="117.2597">
			<stop  offset="0" style="stop-color:#710000"/>
			<stop  offset="7.367647e-02" style="stop-color:#7D0304"/>
			<stop  offset="0.2068" style="stop-color:#9D0B0F"/>
			<stop  offset="0.3354" style="stop-color:#C2151C"/>
			<stop  offset="0.6661" style="stop-color:#BA1319"/>
			<stop  offset="0.845" style="stop-color:#A60D11"/>
			<stop  offset="1" style="stop-color:#99090C"/>
		</linearGradient>
		<path class="st1" d="M648.3,107.2l-1.7-26.4l-0.2-2.6h-16.2l-0.8,0.9l-22.9,24.4l-0.1-2.5c2.2-1.2,4-2.9,5.3-5.1l0.1-0.2l0.1-0.2
			l3.2-7.4l0.1-0.2l0.1-0.2c0.7-2.8,0-4.8-0.7-5.9c-1.2-1.9-3.5-3.1-6.7-3.6l-0.2,0h-30.2l-0.7,1.7l-1.7,3.9c-0.2-0.8-0.5-1.5-0.8-2
			c-1.2-1.9-3.5-3.1-6.7-3.6l-0.2,0h-20.8l-0.2,0c-5.1,0.7-9,2.7-11.6,6.1c-0.2-1.1-0.6-1.9-0.9-2.5c-1.2-1.9-3.5-3.1-6.7-3.6
			l-0.2,0h-55.8l-0.7,1.7l-7.6,17.3c-0.2,0.4-0.4,0.8-1.5,0.8h-11.8l7-15.9l1.7-4h-14.6l-0.7,1.7l-1.7,3.9c-0.2-0.8-0.5-1.5-0.8-2
			c-1.2-1.9-3.5-3.1-6.7-3.6l-0.2,0h-43l-0.7,1.7l-1.6,3.6c-0.2-0.7-0.5-1.2-0.8-1.7c-1.2-1.9-3.5-3.1-6.7-3.6l-0.2,0h-98.9l-0.2,0
			c-3.6,0.5-6.6,1.6-8.9,3.5l1.5-3.5h-14.6l-0.7,1.7l-1.6,3.6c-0.2-0.7-0.5-1.2-0.8-1.7c-1.2-1.9-3.5-3.1-6.7-3.6l-0.2,0h-30.2
			l-0.7,1.7l-11.6,26.4l-1.7,4h32.6l0.2,0c3.6-0.4,6.5-1.5,8.9-3.3l-1.4,3.3h45.5l0.2,0c5.7-0.8,9.9-3.3,12.4-7.3l0.1-0.2l0.1-0.2
			l2.1-4.7l0.1-0.2l0.1-0.2c0.7-2.8-0.1-4.8-0.8-5.9c-0.3-0.4-0.6-0.8-1-1.1h15.6l-6.9,15.9l-1.7,4H325l0.7-1.7l7.9-18.1h10.8
			l-6.9,15.9l-1.7,4h14.6l0.7-1.7l2.4-5.5h10.1l0.4,4.6l0.2,2.6h57.2l0.2,0c5.1-0.7,9-2.7,11.5-6c0.2,1.1,0.6,1.9,0.9,2.5
			c1.3,1.9,3.6,3.1,6.9,3.5l0.2,0h20.7l0.2,0c3.6-0.4,6.5-1.5,8.9-3.3l-1.4,3.3H515l0.2,0c5.1-0.6,9-2.6,11.6-6
			c0.2,1.1,0.6,1.9,0.9,2.5c1.3,1.9,3.6,3.1,6.9,3.5l0.2,0h20.7l0.2,0c3.8-0.4,6.9-1.6,9.3-3.6l-1.6,3.6h14.6l0.7-1.7l2.4-5.5h10.1
			l0.4,4.6l0.2,2.6h37.3l0.8-0.7l2.9-2.5h0l0,0.5l0.2,2.6h15.5L648.3,107.2z M237,107.4h-16.9l7.7-6.6h8.5c2,0,3.4-0.8,4.1-2.5
			l3.5-8c0.8-1.8,0.1-2.7-2-2.7H226l-8.6,19.8h-8.4L220.5,81h28.2c4.3,0.7,6,2.7,5.1,6l-6.3,14.5C245.4,104.9,241.9,106.8,237,107.4
			z M257.6,107.4h-8.4L260.7,81h8.4l-11.2,25.7L257.6,107.4z M306.6,87.6h-24.3c-1.1,0-2,0.1-2.6,0.4c-0.6,0.2-1.1,0.7-1.4,1.4
			c-0.5,1.1,0.3,1.6,2.3,1.6h16.7c4.4,0.5,6.1,2.5,5.3,5.8l-2.1,4.7c-2,3.3-5.5,5.3-10.4,6h-28.7l7.7-6.6h20c1.1,0,2-0.1,2.6-0.4
			c0.6-0.2,1.1-0.7,1.4-1.4c0.4-1-0.4-1.5-2.4-1.5h-16.7c-4.4-0.6-6.2-2.5-5.2-5.9l2-4.7c2.1-3.3,5.5-5.3,10.4-6h28.2L306.6,87.6z
			 M344.2,87.6h-12.4l-8.6,19.8h-8.4l8.6-19.8h-12.4L314,81h33.1L344.2,87.6z M366.8,107.4l-0.7-7.2h-11.8l7.7-6.6h8.5
			c2,0,3.4-0.8,4.1-2.4l0.4-0.8c0.8-1.8,0.1-2.7-2.1-2.7h-15.9l-8.6,19.8h-8.4L351.7,81h28.2c4.3,0.7,6,2.7,5.1,6l-3.2,7.4
			c-1.4,2.3-3.4,3.9-5.9,4.8l0.4,8.2H366.8z M380.3,107.4L391.9,81h8.4l-11.6,26.4H380.3z M433.7,94.1c0.1,0.4,0.2,0.8,0.3,1.2
			c0.1,0.5,0,1-0.3,1.6l-2,4.6c-2,3.3-5.5,5.3-10.4,6h-28.2L404.7,81h28.2c4.3,0.7,6,2.7,5.1,6l-1.6,3.6c-0.3,0.7-0.7,1.2-1.1,1.8
			C434.9,92.9,434.4,93.5,433.7,94.1z M461.8,107.4h-20.3c-4.4-0.6-6.2-2.5-5.2-5.9l9-20.5h8.4L446,98.3c-0.7,1.7-0.1,2.5,1.9,2.5
			H461c2,0,3.4-0.8,4.1-2.5l7.6-17.3h8.4l-9,20.5C470.1,104.9,466.6,106.8,461.8,107.4z M473.9,107.4L485.4,81h8.4l-11.6,26.4H473.9
			z M525.2,101.5c-2.1,3.4-5.6,5.3-10.4,5.9h-16.9l7.7-6.6h8.5c2,0,3.4-0.8,4.1-2.5l3.5-8c0.8-1.8,0.1-2.7-2-2.7h-15.9l-8.6,19.8
			h-8.4L498.3,81h28.2c4.3,0.7,6,2.7,5.1,6L525.2,101.5z M555.3,107.4H535c-4.4-0.6-6.2-2.5-5.2-5.9l6.3-14.5c2-3.3,5.5-5.3,10.4-6
			h20.4c4.3,0.7,6,2.7,5.1,6l-6.3,14.5C563.6,104.9,560.1,106.8,555.3,107.4z M594.4,107.4l-0.7-7.2H582l7.7-6.6h8.5
			c2,0,3.4-0.8,4.1-2.4l0.4-0.8c0.8-1.8,0.1-2.7-2.1-2.7h-15.8l-8.6,19.8h-8.4L579.2,81h28.2c4.3,0.7,6,2.7,5.1,6l-3.2,7.4
			c-1.4,2.3-3.4,3.9-5.9,4.8l0.4,7.2l0.1,1H594.4z M635.6,107.4l-0.4-6.2l-7.2,6.2h-21.4L631.4,81h12.4l1.7,26.4H635.6z"/>
		<linearGradient id="SVGID_3_" gradientUnits="userSpaceOnUse" x1="213.0659" y1="81.5134" x2="793.7222" y2="117.8828">
			<stop  offset="0" style="stop-color:#710000"/>
			<stop  offset="7.367647e-02" style="stop-color:#7D0304"/>
			<stop  offset="0.2068" style="stop-color:#9D0B0F"/>
			<stop  offset="0.3354" style="stop-color:#C2151C"/>
			<stop  offset="0.6661" style="stop-color:#BA1319"/>
			<stop  offset="0.845" style="stop-color:#A60D11"/>
			<stop  offset="1" style="stop-color:#99090C"/>
		</linearGradient>
		<path class="st2" d="M428.4,87.9c-0.4-0.2-1.2-0.3-2.3-0.3h-15.8l-5.8,13.2h15.8c1.1,0,2-0.1,2.5-0.3c0.6-0.2,1-0.6,1.4-1.3
			l0.1-0.2c0.4-0.9-0.4-1.4-2.4-1.4h-13.3l7.7-6.6h8.3c1.2,0,2.1-0.1,2.6-0.4c0.6-0.2,1-0.6,1.2-1.2
			C428.9,88.6,428.8,88.1,428.4,87.9z M428.4,87.9c-0.4-0.2-1.2-0.3-2.3-0.3h-15.8l-5.8,13.2h15.8c1.1,0,2-0.1,2.5-0.3
			c0.6-0.2,1-0.6,1.4-1.3l0.1-0.2c0.4-0.9-0.4-1.4-2.4-1.4h-13.3l7.7-6.6h8.3c1.2,0,2.1-0.1,2.6-0.4c0.6-0.2,1-0.6,1.2-1.2
			C428.9,88.6,428.8,88.1,428.4,87.9z M428.4,87.9c-0.4-0.2-1.2-0.3-2.3-0.3h-15.8l-5.8,13.2h15.8c1.1,0,2-0.1,2.5-0.3
			c0.6-0.2,1-0.6,1.4-1.3l0.1-0.2c0.4-0.9-0.4-1.4-2.4-1.4h-13.3l7.7-6.6h8.3c1.2,0,2.1-0.1,2.6-0.4c0.6-0.2,1-0.6,1.2-1.2
			C428.9,88.6,428.8,88.1,428.4,87.9z M428.4,87.9c-0.4-0.2-1.2-0.3-2.3-0.3h-15.8l-5.8,13.2h15.8c1.1,0,2-0.1,2.5-0.3
			c0.6-0.2,1-0.6,1.4-1.3l0.1-0.2c0.4-0.9-0.4-1.4-2.4-1.4h-13.3l7.7-6.6h8.3c1.2,0,2.1-0.1,2.6-0.4c0.6-0.2,1-0.6,1.2-1.2
			C428.9,88.6,428.8,88.1,428.4,87.9z M428.4,87.9c-0.4-0.2-1.2-0.3-2.3-0.3h-15.8l-5.8,13.2h15.8c1.1,0,2-0.1,2.5-0.3
			c0.6-0.2,1-0.6,1.4-1.3l0.1-0.2c0.4-0.9-0.4-1.4-2.4-1.4h-13.3l7.7-6.6h8.3c1.2,0,2.1-0.1,2.6-0.4c0.6-0.2,1-0.6,1.2-1.2
			C428.9,88.6,428.8,88.1,428.4,87.9z M428.4,87.9c-0.4-0.2-1.2-0.3-2.3-0.3h-15.8l-5.8,13.2h15.8c1.1,0,2-0.1,2.5-0.3
			c0.6-0.2,1-0.6,1.4-1.3l0.1-0.2c0.4-0.9-0.4-1.4-2.4-1.4h-13.3l7.7-6.6h8.3c1.2,0,2.1-0.1,2.6-0.4c0.6-0.2,1-0.6,1.2-1.2
			C428.9,88.6,428.8,88.1,428.4,87.9z M428.4,87.9c-0.4-0.2-1.2-0.3-2.3-0.3h-15.8l-5.8,13.2h15.8c1.1,0,2-0.1,2.5-0.3
			c0.6-0.2,1-0.6,1.4-1.3l0.1-0.2c0.4-0.9-0.4-1.4-2.4-1.4h-13.3l7.7-6.6h8.3c1.2,0,2.1-0.1,2.6-0.4c0.6-0.2,1-0.6,1.2-1.2
			C428.9,88.6,428.8,88.1,428.4,87.9z M428.4,87.9c-0.4-0.2-1.2-0.3-2.3-0.3h-15.8l-5.8,13.2h15.8c1.1,0,2-0.1,2.5-0.3
			c0.6-0.2,1-0.6,1.4-1.3l0.1-0.2c0.4-0.9-0.4-1.4-2.4-1.4h-13.3l7.7-6.6h8.3c1.2,0,2.1-0.1,2.6-0.4c0.6-0.2,1-0.6,1.2-1.2
			C428.9,88.6,428.8,88.1,428.4,87.9z M428.4,87.9c-0.4-0.2-1.2-0.3-2.3-0.3h-15.8l-5.8,13.2h15.8c1.1,0,2-0.1,2.5-0.3
			c0.6-0.2,1-0.6,1.4-1.3l0.1-0.2c0.4-0.9-0.4-1.4-2.4-1.4h-13.3l7.7-6.6h8.3c1.2,0,2.1-0.1,2.6-0.4c0.6-0.2,1-0.6,1.2-1.2
			C428.9,88.6,428.8,88.1,428.4,87.9z"/>
		<linearGradient id="SVGID_4_" gradientUnits="userSpaceOnUse" x1="213.5945" y1="73.0747" x2="794.2507" y2="109.4441">
			<stop  offset="0" style="stop-color:#710000"/>
			<stop  offset="7.367647e-02" style="stop-color:#7D0304"/>
			<stop  offset="0.2068" style="stop-color:#9D0B0F"/>
			<stop  offset="0.3354" style="stop-color:#C2151C"/>
			<stop  offset="0.6661" style="stop-color:#BA1319"/>
			<stop  offset="0.845" style="stop-color:#A60D11"/>
			<stop  offset="1" style="stop-color:#99090C"/>
		</linearGradient>
		<path class="st3" d="M560.1,87.6h-12.7c-2.1,0-3.6,0.9-4.4,2.7l-3.5,8c-0.7,1.7-0.1,2.5,1.9,2.5h13.1c2,0,3.4-0.8,4.1-2.5l3.5-8
			C562.9,88.5,562.2,87.6,560.1,87.6z M560.1,87.6h-12.7c-2.1,0-3.6,0.9-4.4,2.7l-3.5,8c-0.7,1.7-0.1,2.5,1.9,2.5h13.1
			c2,0,3.4-0.8,4.1-2.5l3.5-8C562.9,88.5,562.2,87.6,560.1,87.6z M560.1,87.6h-12.7c-2.1,0-3.6,0.9-4.4,2.7l-3.5,8
			c-0.7,1.7-0.1,2.5,1.9,2.5h13.1c2,0,3.4-0.8,4.1-2.5l3.5-8C562.9,88.5,562.2,87.6,560.1,87.6z M560.1,87.6h-12.7
			c-2.1,0-3.6,0.9-4.4,2.7l-3.5,8c-0.7,1.7-0.1,2.5,1.9,2.5h13.1c2,0,3.4-0.8,4.1-2.5l3.5-8C562.9,88.5,562.2,87.6,560.1,87.6z
			 M560.1,87.6h-12.7c-2.1,0-3.6,0.9-4.4,2.7l-3.5,8c-0.7,1.7-0.1,2.5,1.9,2.5h13.1c2,0,3.4-0.8,4.1-2.5l3.5-8
			C562.9,88.5,562.2,87.6,560.1,87.6z"/>
		<linearGradient id="SVGID_5_" gradientUnits="userSpaceOnUse" x1="214.1437" y1="64.305" x2="794.8" y2="100.6744">
			<stop  offset="0" style="stop-color:#710000"/>
			<stop  offset="7.367647e-02" style="stop-color:#7D0304"/>
			<stop  offset="0.2068" style="stop-color:#9D0B0F"/>
			<stop  offset="0.3354" style="stop-color:#C2151C"/>
			<stop  offset="0.6661" style="stop-color:#BA1319"/>
			<stop  offset="0.845" style="stop-color:#A60D11"/>
			<stop  offset="1" style="stop-color:#99090C"/>
		</linearGradient>
		<path class="st4" d="M700.7,87.6H688c-2.1,0-3.6,0.9-4.4,2.7l-3.5,8c-0.7,1.7-0.1,2.5,1.9,2.5h13.1c2,0,3.4-0.8,4.1-2.5l3.5-8
			C703.5,88.5,702.8,87.6,700.7,87.6z M700.7,87.6H688c-2.1,0-3.6,0.9-4.4,2.7l-3.5,8c-0.7,1.7-0.1,2.5,1.9,2.5h13.1
			c2,0,3.4-0.8,4.1-2.5l3.5-8C703.5,88.5,702.8,87.6,700.7,87.6z M700.7,87.6H688c-2.1,0-3.6,0.9-4.4,2.7l-3.5,8
			c-0.7,1.7-0.1,2.5,1.9,2.5h13.1c2,0,3.4-0.8,4.1-2.5l3.5-8C703.5,88.5,702.8,87.6,700.7,87.6z"/>
		<linearGradient id="SVGID_6_" gradientUnits="userSpaceOnUse" x1="214.5531" y1="57.7699" x2="795.2094" y2="94.1393">
			<stop  offset="0" style="stop-color:#710000"/>
			<stop  offset="7.367647e-02" style="stop-color:#7D0304"/>
			<stop  offset="0.2068" style="stop-color:#9D0B0F"/>
			<stop  offset="0.3354" style="stop-color:#C2151C"/>
			<stop  offset="0.6661" style="stop-color:#BA1319"/>
			<stop  offset="0.845" style="stop-color:#A60D11"/>
			<stop  offset="1" style="stop-color:#99090C"/>
		</linearGradient>
		<path class="st5" d="M788.8,107.2l-1.7-26.4l-0.2-2.6h-16.2l-0.8,0.9l-19.2,20.5l7.6-17.5l1.7-4h-9.5l5.4-4.8l5.6-4.9h-16.3
			l-0.3,0.3l-0.1-0.3h-13l-0.8,0.7l-7.5,6.6l-2.7,2.4h-2.9l-0.7,1.7l-1.7,3.9c-0.2-0.8-0.5-1.5-0.8-2c-1.2-1.9-3.5-3.1-6.7-3.6
			l-0.2,0h-20.8l-0.2,0c-5.7,0.8-9.9,3.2-12.4,7.3l-0.1,0.2l-0.1,0.2l-6.3,14.5l-0.1,0.2l0,0.2c-0.8,2.9-0.1,4.8,0.7,6
			c1.3,1.9,3.6,3.1,6.9,3.5l0.2,0H696l0.2,0c3.8-0.4,6.9-1.6,9.3-3.6l-1.6,3.6h14.6l0.7-1.7l6.5-14.8l10.1,6.2l-2.8,6.4l-1.7,3.9
			h38.3l0.8-0.7l2.9-2.5l0,0.5l0.2,2.6H789L788.8,107.2z M732.9,71.3h9.8l0.7,2.5l2.9-2.5h7.8l-7.5,6.7h-9.8l-0.7-2.5l-2.9,2.5h-7.8
			L732.9,71.3z M695.8,107.4h-20.3c-4.4-0.6-6.2-2.5-5.2-5.9l6.3-14.5c2-3.3,5.5-5.3,10.4-6h20.4c4.3,0.7,6,2.7,5.1,6l-6.3,14.5
			C704.2,104.9,700.7,106.8,695.8,107.4z M744.1,107.4h-8.5l5.3-12.1l-2.9,2.6l-13.6-8.4l-7.8,17.8h-8.4L719.8,81h8l15.2,9.7
			l4.2-9.7h8.5l-10.9,24.8L744.1,107.4z M776.1,107.4l-0.4-6.2l-7.2,6.2h-21.4l0.1-0.1L771.9,81h12.4l1.7,26.4H776.1z"/>
		<linearGradient id="SVGID_7_" gradientUnits="userSpaceOnUse" x1="213.5401" y1="73.9425" x2="742.2917" y2="107.0609">
			<stop  offset="0" style="stop-color:#710000"/>
			<stop  offset="7.367647e-02" style="stop-color:#7D0304"/>
			<stop  offset="0.2068" style="stop-color:#9D0B0F"/>
			<stop  offset="0.3354" style="stop-color:#C2151C"/>
			<stop  offset="0.6661" style="stop-color:#BA1319"/>
			<stop  offset="0.845" style="stop-color:#A60D11"/>
			<stop  offset="1" style="stop-color:#99090C"/>
		</linearGradient>
		<path class="st6" d="M747.2,107.4L747.2,107.4L747.2,107.4L747.2,107.4z"/>
		<linearGradient id="SVGID_8_" gradientUnits="userSpaceOnUse" x1="214.4265" y1="59.7913" x2="795.0827" y2="96.1607">
			<stop  offset="0" style="stop-color:#710000"/>
			<stop  offset="7.367647e-02" style="stop-color:#7D0304"/>
			<stop  offset="0.2068" style="stop-color:#9D0B0F"/>
			<stop  offset="0.3354" style="stop-color:#C2151C"/>
			<stop  offset="0.6661" style="stop-color:#BA1319"/>
			<stop  offset="0.845" style="stop-color:#A60D11"/>
			<stop  offset="1" style="stop-color:#99090C"/>
		</linearGradient>
		<path class="st7" d="M774.9,88.3l-11.8,12.5h12.6L774.9,88.3z M774.9,88.3l-11.8,12.5h12.6L774.9,88.3z M774.9,88.3l-11.8,12.5
			h12.6L774.9,88.3z M774.9,88.3l-11.8,12.5h12.6L774.9,88.3z M774.9,88.3l-11.8,12.5h12.6L774.9,88.3z"/>
		<linearGradient id="SVGID_9_" gradientUnits="userSpaceOnUse" x1="213.957" y1="67.2856" x2="794.6106" y2="103.6548">
			<stop  offset="0" style="stop-color:#710000"/>
			<stop  offset="7.367647e-02" style="stop-color:#7D0304"/>
			<stop  offset="0.2068" style="stop-color:#9D0B0F"/>
			<stop  offset="0.3354" style="stop-color:#C2151C"/>
			<stop  offset="0.6661" style="stop-color:#BA1319"/>
			<stop  offset="0.845" style="stop-color:#A60D11"/>
			<stop  offset="1" style="stop-color:#99090C"/>
		</linearGradient>
		<path class="st8" d="M646.6,80.8l-0.2-2.6h0L646.6,80.8l1.7,26.4L646.6,80.8z M635.2,101.2L635.2,101.2l0.4,6.2h0L635.2,101.2
			L635.2,101.2z M622.6,100.8h12.6l-0.8-12.5L622.6,100.8z M632.8,107.1L632.8,107.1l-2.9,2.5L632.8,107.1z M606.6,107.4
			L606.6,107.4L631.4,81L606.6,107.4z M634.4,88.3l-11.8,12.5h12.6L634.4,88.3z M634.4,88.3l-11.8,12.5h12.6L634.4,88.3z"/>
	</g>
</g>
<linearGradient id="SVGID_10_" gradientUnits="userSpaceOnUse" x1="9" y1="99.1475" x2="188.8097" y2="99.1475">
	<stop  offset="3.104970e-02" style="stop-color:#7D7D7D"/>
	<stop  offset="7.231137e-02" style="stop-color:#797979"/>
	<stop  offset="0.2537" style="stop-color:#6A6A6A"/>
	<stop  offset="0.5457" style="stop-color:#6A6A6A"/>
	<stop  offset="0.6129" style="stop-color:#717171"/>
	<stop  offset="0.713" style="stop-color:#868686"/>
	<stop  offset="0.8336" style="stop-color:#A7A7A7"/>
	<stop  offset="0.9693" style="stop-color:#D5D5D5"/>
	<stop  offset="1" style="stop-color:#E0E0E0"/>
</linearGradient>
<path class="st9" d="M188.8,95.3c0-1.4-0.5-2.1-1.9-2.4c-3.7-0.8-3.6-0.9-4-4.8c0-0.2,0-0.4-0.1-0.6c-0.7-4-0.4-3.3,2.4-4.7
	c1.6-0.8,2-1.8,1.5-3.4c-0.7-2.2-1.3-4.4-1.8-6.6c-0.4-1.8-1.3-2.5-3.2-2.4c-3.5,0.2-3,0.4-4.3-2.9c-0.1-0.2-0.2-0.5-0.3-0.7
	c-1.7-4.2-2-3.1,1.3-6.1c1-0.9,1.2-1.7,0.5-2.9c-1.4-2.3-2.8-4.7-4.1-7c-0.7-1.2-1.4-1.5-2.7-1.1c-3.6,1-3.7,1-6-2.1
	c-0.1-0.1-0.2-0.2-0.2-0.3c-2.5-3.3-2.4-2.2-0.3-5.6c0.8-1.3,0.8-2.3-0.4-3.4c-1.9-1.8-3.7-3.6-5.5-5.5c-1-1-1.8-1.1-3.1-0.4
	c-3.1,2-3.2,1.9-6-0.3c-0.1-0.1-0.2-0.1-0.3-0.2c-2.9-2.2-2.9-2.2-1.8-5.8c0.4-1.2,0.2-2.1-1-2.8c-2.4-1.3-4.8-2.7-7.2-4.1
	c-1-0.6-2-0.6-2.6,0.4c-1.8,3-4.1,2.9-6.7,1.2c-0.3-0.2-0.6-0.3-0.8-0.3c-1.9-0.4-2.8-1.4-2.3-3.1c0-3.5,0-3.5-3-4.3
	c-1.8-0.5-3.6-0.9-5.3-1.4c-3-0.8-3.1-0.8-4.5,2.1c-0.7,1.5-1.5,2.4-3.4,1.8c-1.2-0.4-2.4-0.4-3.6-0.5c-1.4,0-2.2-0.7-2.3-2.1
	c-0.1-0.6-0.3-1.1-0.4-1.6c-0.2-1.5-1.1-2.2-2.6-2.2c-2.5,0-5,0-7.6,0c-1.4,0-2.2,0.6-2.6,2.1c-0.7,3.4-0.8,3.4-4.2,4
	c-0.2,0-0.4,0.1-0.5,0.1c-4.3,0.4-3.5,1.3-5.4-2.7c-0.7-1.4-1.5-1.7-3-1.3c-2.3,0.7-4.7,1.4-7.1,1.9c-1.7,0.4-2.3,1.2-2.2,3
	c0.1,3.8,0.4,3.1-3.1,4.6c-0.2,0.1-0.5,0.2-0.7,0.3c-3.3,1.4-3.3,1.4-5.8-1.2c-0.8-0.9-1.7-1.4-2.9-0.7c-2.4,1.4-4.9,2.8-7.4,4.2
	c-1,0.6-1.5,1.4-1,2.4c1.5,2.8,0.8,4.9-2,6.2c0,0-0.1,0.1-0.1,0.1c-3.3,2.5-2.4,2.6-5.9,0.3c-1.3-0.8-2.2-0.7-3.2,0.4
	c-1.7,1.8-3.5,3.6-5.4,5.4c-1.1,1.1-1.2,2.1-0.4,3.4c1.8,3,1.8,3-0.4,5.9c-0.1,0.2-0.2,0.3-0.3,0.4c-2.5,3.3-1.7,3-5.5,1.8
	c-1.5-0.5-2.4-0.1-3.1,1.3c-1.1,2.1-2.3,4.2-3.6,6.2c-1,1.5-0.9,2.6,0.6,3.8c2.9,2.5,2.4,1.9,1.1,5.2c-0.1,0.3-0.2,0.6-0.4,0.8
	c-1.5,3.6-0.7,3.5-5,3.3c-1.4-0.1-2.2,0.4-2.5,1.8c-0.6,2.6-1.3,5.1-2.1,7.7c-0.4,1.4,0.1,2.2,1.3,2.8c3.2,1.7,3.2,1.7,2.7,5.3
	c0,0.2,0,0.4-0.1,0.5c-0.5,3.5-0.5,3.6-4,4.4C9.6,93.1,9,93.8,9,95.1c0,2.7,0,5.4,0,8.1c0,1.4,0.6,2.1,2,2.4
	c3.5,0.8,3.4,0.8,3.9,4.2c0,0.2,0.1,0.5,0.1,0.7c0.4,3.5,0.4,3.6-2.8,5.3c-1.3,0.7-1.6,1.5-1.2,2.8c0.7,2.4,1.4,4.7,1.9,7.1
	c0.4,1.9,1.3,2.6,3.2,2.4c3.3-0.4,3-0.6,4.3,2.8c0.1,0.3,0.2,0.6,0.4,0.9c1.7,4.1,1.9,3-1.2,5.8c-1.1,1-1.3,1.9-0.5,3.2
	c1.3,2.2,2.6,4.5,3.9,6.7c0.6,1.1,1.6,1.8,2.7,1.2c3.1-1.7,4.9-0.3,6.3,2.3c0.2,0.3,0.4,0.6,0.7,0.9c1.4,1.3,1.5,2.5,0.2,3.9
	c-0.2,0.2-0.3,0.5-0.5,0.8c-1,1.3-0.9,2.4,0.3,3.6c1.8,1.7,3.6,3.5,5.4,5.3c1,1.1,2,1.1,3.2,0.3c3.4-2.2,2.3-2.4,5.9,0.3
	c0.1,0.1,0.3,0.2,0.4,0.3c3.2,2.5,3.1,1.5,1.8,5.6c-0.4,1.4-0.1,2.2,1.1,2.9c2.2,1.2,4.4,2.5,6.5,3.8c1.5,0.9,2.6,0.7,3.7-0.6
	c2.6-2.9,1.9-2.5,5.2-1.1c0.2,0.1,0.5,0.2,0.7,0.3c2.8,0.6,4,2.2,3.5,5.1c-0.3,1.4,0.4,2.2,1.8,2.5c2.5,0.6,5,1.3,7.5,2
	c1.2,0.3,2.4,0.3,2.8-1c1-3.1,3-3.8,5.9-2.9c0.2,0.1,0.5,0,0.7,0.1c2.9,0.3,2.9,0.3,3.6,3.1c0.1,0.2,0.2,0.5,0.2,0.7
	c0.1,1.5,1,2.1,2.5,2c2.5-0.1,5-0.1,7.6,0c1.7,0.1,2.4-0.6,2.7-2.2c0.7-3.4,0.7-3.4,4.3-3.7c0.1,0,0.3,0,0.4,0
	c2.8-1,4.7-0.2,5.6,2.7c0.4,1.3,1.4,1.6,2.7,1.2c2.7-0.7,5.3-1.4,8-2.2c1-0.3,1.7-0.9,1.5-2c-0.7-3.4,0.9-5.1,4-5.8
	c0.7-0.1,1.3-0.5,1.9-0.8c0.8-0.4,1.5-0.3,2.1,0.4c0.4,0.5,0.9,1,1.3,1.5c1,1.3,2.1,1.4,3.5,0.6c2.2-1.3,4.3-2.6,6.6-3.8
	c1.3-0.7,1.6-1.6,1.2-3c-1.2-4-1.6-2.9,1.7-5.5c0.1-0.1,0.3-0.2,0.4-0.3c2.9-2.3,2.9-2.3,6-0.4c1.2,0.7,2.1,0.8,3.1-0.3
	c1.9-2,3.8-3.9,5.7-5.8c0.9-0.9,1.2-1.9,0.3-2.8c-2.3-2.4-1.9-4.5,0.5-6.5c0.1-0.1,0.2-0.3,0.3-0.4c2.2-2.9,1.6-2.7,4.9-1.6
	c1.7,0.6,2.8,0.2,3.6-1.4c1.1-2.2,2.4-4.3,3.7-6.4c0.8-1.3,0.5-2.2-0.5-3.2c-2.6-2.4-2.6-2.4-1.2-5.8c0.1-0.2,0.2-0.3,0.2-0.5
	c1.3-3.2,1.3-3.3,4.8-3.2c1.5,0.1,2.4-0.4,2.8-2c0.5-2.4,1.2-4.8,1.9-7.1c0.5-1.6,0.1-2.6-1.5-3.4c-2.9-1.4-2.9-1.5-2.4-4.7
	c0-0.2,0-0.5,0.1-0.7c0.4-3.7,0.4-3.7,4-4.6c1.3-0.3,2-0.9,2-2.4C188.7,100.6,188.8,97.9,188.8,95.3z M98.9,169.9
	c-39,0-70.7-31.7-70.7-70.7c0-39,31.7-70.7,70.7-70.7c39.1,0,70.7,31.7,70.7,70.7C169.6,138.2,138,169.9,98.9,169.9z"/>
<path class="st10" d="M37.3,121.1c0.5-1.1,0.8-1.7,1-2.3c1.6-4,3.2-8.1,4.9-12.1c0.8-1.8,1.5-3.6,1.8-5.5c0.2-1.1,0.2-2.2,0.1-3.4
	c-0.2-1.4,0.2-2.6,2-3c1.8-0.4,1.4-2.2,1.7-3.5c0.2-1.1-0.2-1.8-1.2-2.2c-1.3-0.5-1.4-1.4-1.1-2.5c0.3-0.9,0.5-1.9,0.7-2.9
	c0.3-1.4,1-2.2,2.7-2.1c2,0.1,1.8-1.8,2.5-2.9c0.5-0.9,0.5-1.7-0.4-2.3c-1.3-0.9-1.2-2-0.4-3.2c0.5-0.7,0.9-1.5,1.3-2.2
	c0.7-1.4,1.6-2.1,3.2-1.4c1.1,0.5,1.7-0.3,2.2-1.1c0.6-1,2.3-1.7,1.2-3.1c-1.3-1.7-0.6-2.8,0.7-3.9c0.6-0.5,1.1-1,1.6-1.6
	c0.9-1.1,1.9-1.5,3.1-0.4c0.7,0.6,1.5,0.7,2.1,0c0.9-1,3-1.3,2.4-3.3c-0.5-1.7,0-2.5,1.4-3.2c0.8-0.4,1.6-0.9,2.4-1.4
	c1.1-0.7,2-0.8,2.9,0.4c0.7,1,1.6,1,2.6,0.5c1.1-0.6,2.9-0.6,2.7-2.5c-0.1-1.5,0.6-2.3,2-2.6c1.1-0.2,2.1-0.5,3.2-0.8
	c1-0.3,1.9-0.1,2.2,1c0.6,1.8,1.9,1.4,3.2,1.2c1.3-0.1,2.5-0.3,2.7-1.9c0.2-1.3,1-1.7,2.2-1.7c0.9,0,1.8,0,2.8,0
	c1.5,0,2.6,0.4,2.9,2.1c0.3,1.6,1.7,1.4,2.8,1.5c1.1,0.1,2.3,0.6,2.8-0.9c0.5-1.4,1.5-1.6,2.8-1.2c0.8,0.2,1.7,0.5,2.5,0.6
	c1.6,0.3,2.5,1,2.4,2.9c-0.1,1.9,1.9,1.8,3,2.4c0.7,0.4,1.4,0.5,2-0.3c1-1.6,2.2-1.4,3.6-0.4c0.7,0.5,1.5,0.9,2.2,1.3
	c1.2,0.6,1.8,1.4,1.2,2.8c-0.5,1-0.1,1.8,0.8,2.3c1.2,0.6,1.9,2.5,3.6,1.3c1.4-1,2.3-0.6,3.3,0.5c0.6,0.7,1.3,1.3,2,2
	c1,0.9,1.3,1.9,0.4,3c-0.8,1-0.4,1.9,0.4,2.6c0.9,0.9,1.3,2.7,3.1,1.9c1.5-0.6,2.3,0,3,1.3c0.4,0.8,0.9,1.5,1.3,2.2
	c0.5,1.2,1.4,1.7,2.8,1.7c2.5,0.1,4.9,0.7,7.1,1.9c3.7,1.9,5.5,5.2,5.1,9.2c-0.1,1.1-0.4,2-0.8,3c-3.3,8.6-7.4,16.9-10,25.8
	c-0.2,0.9-0.8,1.3-1.7,1.5c-1.3,0.3-2.2,1.2-3,2.3c-0.7,1.1-0.9,2.1,0.3,3c1,0.7,1,1.6,0.4,2.6c-0.6,0.9-1.1,1.9-1.6,2.9
	c-0.6,1.2-1.4,1.8-2.8,1.1c-1.1-0.6-1.9,0-2.4,1c-0.6,1.1-2.4,1.8-1.1,3.4c1,1.4,0.6,2.3-0.5,3.3c-0.6,0.5-1.2,1.1-1.7,1.7
	c-1,1.2-2,1.7-3.5,0.6c-1-0.9-1.9-0.1-2.6,0.6c-0.8,0.8-2.5,1.1-1.9,2.8c0.6,1.6,0.1,2.5-1.4,3.3c-0.9,0.4-1.7,0.9-2.6,1.5
	c-1.1,0.7-1.9,0.6-2.7-0.4c-0.7-1-1.6-1.1-2.6-0.5c-1.2,0.6-3,0.6-2.7,2.7c0.1,1.4-0.6,2-1.8,2.3c-0.9,0.2-1.8,0.4-2.7,0.7
	c-1.5,0.5-2.6,0.4-3.3-1.3c-0.4-1.1-1.5-1.1-2.4-0.8c-1.1,0.3-2.8-0.3-3.1,1.4c-0.3,2-1.5,2.3-3.2,2.2c-0.9-0.1-1.8-0.1-2.8,0
	c-1.1,0-1.8-0.4-1.9-1.5c-0.2-2.2-2-1.7-3.3-2.1c-1.2-0.3-2.1,0.1-2.6,1.2c-0.5,1.1-1.3,1.4-2.4,1c-0.9-0.3-1.9-0.6-2.9-0.7
	c-1.5-0.3-2.4-1-2.3-2.7c0.1-2-1.8-1.8-3-2.5c-0.8-0.5-1.6-0.5-2.1,0.4c-1,1.4-2.1,1.3-3.3,0.4c-0.7-0.5-1.5-0.9-2.2-1.3
	c-1.3-0.7-1.9-1.5-1.3-3.1c0.6-1.6-0.9-2.1-1.8-2.8c-0.7-0.6-1.5-1.5-2.6-0.6c-1.5,1.2-2.5,0.6-3.6-0.6c-0.5-0.6-1.1-1.2-1.7-1.7
	c-1-0.9-1.5-1.9-0.5-3.1c0.8-1,0.4-1.8-0.4-2.6c-0.9-0.9-1.2-2.7-3.1-1.9c-1.5,0.6-2.3,0-2.9-1.2c-0.4-0.8-1-1.6-1.4-2.4
	c-0.6-1.2-1.5-1.6-2.8-1.6c-2.8,0.1-5.7,0-8.5,0c-2.6,0-2.6,0.1-1.6,2.4c0.1,0.3,0.2,0.6,0.4,0.8c12,26.4,40.1,41.7,68.9,37.6
	c38.2-5.4,63.5-42.7,54.5-80.2C154.8,51,124.1,29.7,91,33.8c-17,2.1-31.2,9.7-42.2,22.7c-12.5,14.8-17.1,32-14.9,51.1
	c0.1,1.1,0.3,2.2,0.5,3.3C35,114.3,35.9,117.6,37.3,121.1z"/>
<linearGradient id="SVGID_11_" gradientUnits="userSpaceOnUse" x1="201.8584" y1="122.7643" x2="789" y2="122.7643">
	<stop  offset="0" style="stop-color:#575354"/>
	<stop  offset="0.1289" style="stop-color:#716E6F"/>
	<stop  offset="0.3308" style="stop-color:#959394"/>
	<stop  offset="0.4943" style="stop-color:#ABAAAB"/>
	<stop  offset="0.5979" style="stop-color:#B3B2B3"/>
	<stop  offset="0.7776" style="stop-color:#8D8B8B"/>
	<stop  offset="0.9996" style="stop-color:#585555"/>
</linearGradient>
<polygon class="st11" points="789,119.9 204.7,119.9 201.9,125.6 786.1,125.6 "/>
<linearGradient id="SVGID_12_" gradientUnits="userSpaceOnUse" x1="200.5259" y1="129.5189" x2="786.1894" y2="129.5189">
	<stop  offset="0" style="stop-color:#710000"/>
	<stop  offset="7.367647e-02" style="stop-color:#7D0304"/>
	<stop  offset="0.2068" style="stop-color:#9D0B0F"/>
	<stop  offset="0.3354" style="stop-color:#C2151C"/>
	<stop  offset="0.6661" style="stop-color:#BA1319"/>
	<stop  offset="0.845" style="stop-color:#A60D11"/>
	<stop  offset="1" style="stop-color:#99090C"/>
</linearGradient>
<polygon class="st12" points="786.2,128.4 201.9,128.4 200.5,130.7 784.8,130.7 "/>
<g>
	<linearGradient id="SVGID_13_" gradientUnits="userSpaceOnUse" x1="54.0351" y1="67.2493" x2="152.9096" y2="111.3515">
		<stop  offset="0" style="stop-color:#710000"/>
		<stop  offset="7.367647e-02" style="stop-color:#7D0304"/>
		<stop  offset="0.2068" style="stop-color:#9D0B0F"/>
		<stop  offset="0.3354" style="stop-color:#C2151C"/>
		<stop  offset="0.6661" style="stop-color:#BA1319"/>
		<stop  offset="0.845" style="stop-color:#A60D11"/>
		<stop  offset="1" style="stop-color:#99090C"/>
	</linearGradient>
	<path class="st13" d="M149.3,78.9h-30.9c-3,0.4-5.6,1.1-7.9,2.2c0.1,0.1,0.1,0.1,0.1,0.2c1.3,2,1.6,4.4,0.8,7.2l0,0.2l-0.1,0.1
		l-9.6,22l-0.1,0.1l-0.1,0.1c-1.6,2.5-3.6,4.6-6.1,6.2c1.3,0.8,3.1,1.3,5.4,1.6h30.7c7.3-0.9,12.6-3.8,15.7-8.9l9.6-22
		C158.3,82.9,155.8,79.9,149.3,78.9z M142.1,93l-5.3,12.1c-1.1,2.5-3.2,3.8-6.2,3.8h-19.8c-3,0-4-1.3-2.9-3.8l5.3-12.1
		c1.2-2.8,3.4-4.1,6.6-4.1H139C142.2,88.9,143.2,90.3,142.1,93z"/>
	<g>
		<linearGradient id="SVGID_14_" gradientUnits="userSpaceOnUse" x1="41.5745" y1="98.8767" x2="109.7623" y2="98.8767">
			<stop  offset="0" style="stop-color:#710000"/>
			<stop  offset="7.367647e-02" style="stop-color:#7D0304"/>
			<stop  offset="0.2068" style="stop-color:#9D0B0F"/>
			<stop  offset="0.3354" style="stop-color:#C2151C"/>
			<stop  offset="0.6661" style="stop-color:#BA1319"/>
			<stop  offset="0.845" style="stop-color:#A60D11"/>
			<stop  offset="1" style="stop-color:#99090C"/>
		</linearGradient>
		<path class="st14" d="M109.4,88l-9.6,22c-1.5,2.4-3.5,4.4-6,5.9c-2.7,1.6-5.9,2.6-9.7,3.1H58.5l11.6-10h12.8
			c3.1,0,5.1-1.3,6.2-3.8L94.5,93c1.2-2.8,0.1-4.1-3.1-4.1h-24l-13,30H41.6l17.5-40h42.6c3.4,0.5,5.7,1.6,7,3.2
			C109.8,83.6,110.1,85.5,109.4,88z"/>
	</g>
</g>
</svg>
